<svg width="28" height="28" viewBox="0 0 28 28" xmlns="http://www.w3.org/2000/svg"><g fill="none" fill-rule="evenodd"><rect stroke="#BFBFBF" fill="#F5F5F5" x=".5" y=".5" width="27" height="27" rx="4"/><g transform="translate(6 6)"><rect stroke="#666" x="6.5" y=".5" width="9" height="9" rx="2"/><path d="M5,6 L5,7 L2,7 C1.48716416,7 1.06449284,7.38604019 1.00672773,7.88337887 L1,8 L1,14 C1,14.5128358 1.38604019,14.9355072 1.88337887,14.9932723 L2,15 L8,15 C8.51283584,15 8.93550716,14.6139598 8.99327227,14.1166211 L9,14 L9,11 L10,11 L10,14 C10,15.1045695 9.1045695,16 8,16 L2,16 C0.8954305,16 0,15.1045695 0,14 L0,8 C0,6.8954305 0.8954305,6 2,6 L5,6 Z" fill="#666" fill-rule="nonzero"/></g></g></svg>