<svg width="20" height="20" viewBox="0 0 20 20" xmlns="http://www.w3.org/2000/svg"><path d="M714,112 C708.4775,112 704,116.476875 704,122 C704,126.418125 706.865625,130.166875 710.83875,131.48875 C711.33875,131.58125 711.5225,131.271875 711.5225,131.0075 C711.5225,130.769375 711.513125,129.98125 711.50875,129.145625 C708.72625,129.750625 708.139375,127.965625 708.139375,127.965625 C707.684375,126.81 707.029375,126.5025 707.029375,126.5025 C706.121875,125.881875 707.098125,125.894375 707.098125,125.894375 C708.101875,125.965 708.630625,126.925 708.630625,126.925 C709.5225,128.45375 710.97,128.011875 711.540625,127.75625 C711.63,127.11 711.889375,126.66875 712.175625,126.41875 C709.954375,126.16625 707.619375,125.308125 707.619375,121.476875 C707.619375,120.385 708.01,119.493125 708.65,118.7925 C708.54625,118.540625 708.20375,117.52375 708.746875,116.14625 C708.746875,116.14625 709.586875,115.8775 711.4975,117.17125 C712.313388,116.94916 713.155052,116.835887 714.000625,116.834375 C714.85,116.838125 715.70625,116.949375 716.505625,117.17125 C718.414375,115.8775 719.2525,116.14625 719.2525,116.14625 C719.796875,117.52375 719.454375,118.540625 719.350625,118.7925 C719.991875,119.4925 720.38,120.385 720.38,121.476875 C720.38,125.3175 718.040625,126.163125 715.81375,126.41125 C716.1725,126.721875 716.491875,127.33 716.491875,128.263125 C716.491875,129.60125 716.48,130.678125 716.48,131.0075 C716.48,131.27375 716.66,131.585625 717.166875,131.4875 C721.138125,130.16375 724,126.416875 724,122 C724,116.476875 719.5225,112 714,112 Z" transform="translate(-704 -112)" fill="#333"/></svg>