<svg width="120" height="34" viewBox="0 0 120 34" xmlns="http://www.w3.org/2000/svg"><path d="M43.0165276,0 L43.0165276,7.82107138 L16.9468541,7.82107138 C11.9151218,7.82107138 7.82107138,11.9151218 7.82107138,16.9455841 C7.82107138,21.9773164 11.9151218,26.0713668 16.9468541,26.0713668 L30.2416171,26.0713668 L30.2416171,33.8924382 L16.9468541,33.8924382 C7.60220839,33.8920149 0,26.2893832 0,16.9451608 C0,7.60220839 7.60220839,0 16.9468541,0 L43.0165276,0 Z M78.4748734,2.84217094e-14 C87.8195192,2.84217094e-14 95.4200342,7.60220839 95.4200342,16.9451608 C95.4200342,26.2898065 87.8190958,33.8920149 78.4748734,33.8920149 L65.4400367,33.8920149 C56.0958143,33.8920149 48.4948759,26.2893832 48.4948759,16.9451608 C48.4948759,7.60220839 56.0958143,2.84217094e-14 65.4400367,2.84217094e-14 L78.4748734,2.84217094e-14 Z M36.7588238,13.1660699 C40.352495,13.1660699 43.2764539,16.0896054 43.2764539,19.6836999 L43.2764539,33.8492583 L35.4553825,33.8492583 L35.4553825,20.9867179 L16.9468541,20.9867179 L16.9468541,13.1660699 L36.7588238,13.1660699 Z M78.4752968,7.82064805 L65.44046,7.82064805 C60.4083044,7.82064805 56.3159473,11.9146985 56.3159473,16.9451608 C56.3159473,21.9768931 60.4087277,26.0709435 65.44046,26.0709435 L78.4752968,26.0709435 C83.5070291,26.0709435 87.5998095,21.9768931 87.5998095,16.9451608 C87.5998095,11.9151218 83.5070291,7.82064805 78.4752968,7.82064805 Z M113.099254,0.0914398603 L113.126347,6.94138606 L119.976293,6.91302277 L120,12.7825305 L113.150054,12.8108938 L113.178417,19.66084 L107.307216,19.6845466 L107.280123,12.8346004 L100.430177,12.8629637 L100.40647,6.99176265 L107.254723,6.96466936 L107.22763,0.114723158 L113.099254,0.0914398603 Z"/></svg>