<?xml version="1.0" encoding="UTF-8"?>
<svg width="78px" height="22px" viewBox="0 0 78 22" version="1.1" xmlns="http://www.w3.org/2000/svg" xmlns:xlink="http://www.w3.org/1999/xlink">
    <defs>
        <polygon id="path-1" points="0 0 30.5205 0 30.5205 20.33 0 20.33"></polygon>
    </defs>
    <g id="首页" stroke="none" stroke-width="1" fill="none" fill-rule="evenodd">
        <g id="切图" transform="translate(-96.000000, -54.000000)">
            <g id="编组" transform="translate(96.000000, 54.000000)">
                <g transform="translate(0.000000, 0.080025)">
                    <mask id="mask-2" fill="white">
                        <use xlink:href="#path-1"></use>
                    </mask>
                    <g id="Clip-2"></g>
                    <path d="M30.520525,0.2356 C30.006775,0.05935 29.581775,0.2741 29.338025,0.45735 C25.957025,4.4536 20.905275,6.99135 15.260275,6.99135 C13.320775,6.99135 11.451275,6.69185 9.695525,6.13635 C9.238275,4.4771 8.915025,3.2991 8.915025,3.2991 C8.915025,3.2991 8.535275,2.1431 7.250025,2.34135 L7.619525,5.3361 C5.127025,4.19885 2.931025,2.5236 1.182525,0.45685 C0.938525,0.2741 0.513775,0.05935 2.5e-05,0.2356 C1.460525,4.14235 4.378775,7.3366 8.092025,9.16035 L9.104775,17.36185 C9.104775,17.36185 9.557525,20.5001 12.502025,20.5001 L18.800025,20.5001 C21.744525,20.5001 22.197275,17.36185 22.197275,17.36185 L22.909025,11.48435 C20.996775,11.3286 19.794275,12.6611 19.412775,13.9761 C18.772525,16.19035 18.773275,16.33185 18.647025,16.7181 C18.388525,17.50885 17.540275,17.6031 17.540275,17.6031 L13.762025,17.6031 C13.762025,17.6031 12.913275,17.50885 12.654775,16.7181 C12.488275,16.20885 11.656775,13.22985 10.819775,10.2076 C12.231525,10.60685 13.721025,10.8211 15.260275,10.8211 C22.249525,10.8211 28.209025,6.41835 30.520525,0.2356" id="Fill-1" fill="#00A6E0" mask="url(#mask-2)"></path>
                </g>
                <path d="M77.834725,12.6241 L77.834725,10.4211 L64.111225,10.4211 L64.111225,12.6241 L66.636475,12.6241 L64.683725,17.53235 L64.649975,17.53235 L64.649975,19.73535 L76.392975,19.73535 C77.130225,19.6816 77.792725,19.02635 77.792725,18.3471 C77.792725,18.0091 77.683975,17.62385 77.661475,17.54685 L77.662975,17.54685 L76.668975,14.80935 L74.238475,14.80935 L75.226975,17.53235 L67.066725,17.53235 L69.019225,12.6241 L77.834725,12.6241 Z M56.461225,9.3241 L61.354225,9.3241 L61.354225,7.17335 L56.461225,7.17335 L56.461225,4.99385 L54.258225,4.99385 L54.258225,7.17335 L50.874225,7.17335 L51.156725,5.5576 L48.853975,5.5576 L47.677475,12.28685 L48.613725,12.28685 C48.925475,12.2556 49.972725,12.0576 50.237975,10.8106 L50.497975,9.3241 L54.258225,9.3241 L54.258225,15.8871 L47.688725,15.8871 L47.688725,18.0901 L54.258225,18.0901 L54.258225,20.25685 L56.461225,20.25685 L56.461225,18.0901 L61.909975,18.0901 L61.909975,15.8871 L56.461225,15.8871 L56.461225,9.3241 Z M35.712475,5.0171 L33.509475,5.0171 L33.509475,7.1641 L31.321225,7.1641 L31.321225,9.3846 L33.509475,9.3846 L33.509475,18.3506 C33.571725,19.0916 34.165475,19.6801 34.907975,19.73535 L43.561225,19.7351 C44.338475,19.7006 44.963975,19.0816 45.008475,18.3071 L45.008475,14.8016 L42.809475,14.8016 L42.809475,17.4801 L35.712475,17.4801 L35.712475,9.3846 L45.538725,9.3846 L45.538725,7.1641 L35.712475,7.1641 L35.712475,5.0171 Z M64.683725,7.68135 L77.236225,7.68135 L77.236225,5.53035 L64.683725,5.53035 L64.683725,7.68135 Z" id="Fill-3" fill="#00A6E0"></path>
            </g>
        </g>
    </g>
</svg>
